<svg xmlns="http://www.w3.org/2000/svg" id="Layer_1" data-name="Layer 1" viewBox="0 0 842.14 861.11"><defs><style>.cls-1{fill:#e3e3e3;opacity:.8}</style></defs><path d="m396.8 556.92 130.81-23.44-72.02-190.42z" class="cls-1"/><path d="m568.33 116.93-.39.07-.55-1.23-.39.07-.55-1.23-.39.07-.55-1.23-.39.07-.55-1.23-.39.07-.55-1.23-.39.07-.55-1.23-.39.07-.55-1.23-.39.07-.55-1.23-.39.07-.55-1.23-.39.07-.55-1.23-.39.07-.55-1.23-.39.07-.55-1.23-.39.07-.55-1.23-.39.07-.55-1.23-.39.07-.55-1.23-.39.07-.55-1.23-.39.07-.55-1.23-.39.07-.55-1.23-.39.07-.55-1.23-.39.07-.55-1.23-.39.07-.55-1.23-.39.07-.55-1.23-.39.07-.55-1.23-.39.07-.55-1.23-.39.07-.55-1.23-.39.07-.55-1.23-.39.07-.55-1.23-.39.07-.55-1.23-.39.07-.55-1.23-.39.07-.55-1.23-.39.07-.55-1.23-.39.07-.55-1.23-.39.07-.55-1.23-.39.07-.55-1.23-.39.07-.55-1.23-.39.07-.55-1.23-.39.07-.55-1.23-.39.07-.55-1.23-.39.07-.55-1.23-.39.07-.55-1.23-.39.07-.55-1.23-.39.07-.55-1.23-.39.07-.55-1.23-.39.07-.55-1.23-.39.07-.55-1.23-.39.07-.55-1.23-.39.07-.55-1.23-.39.07-.55-1.23-.39.07-.55-1.23-.39.07-.55-1.23-.39.07-.55-1.23-.39.07-.55-1.23-.39.07-.55-1.23-.39.07-.55-1.23-.39.07-.55-1.23-.39.07-.55-1.23-.39.07-.55-1.23-.39.07-.55-1.23-.39.07-.55-1.23-.39.07-.55-1.23-.39.07-.55-1.23-.39.07-.55-1.23-.39.07-.55-1.23-.39.07-.55-1.23-.39.07-.55-1.23-.39.07-.55-1.23-.39.07-.55-1.23-.39.07-.55-1.23-.39.07-.55-1.23-.39.07-.55-1.23-.39.07-.55-1.23-.39.07-.55-1.23-.39.07-.55-1.23-.39.07-.55-1.23-.39.07-.55-1.23-.39.07-.55-1.23-.39.07-.55-1.23-.39.07-.55-1.23-.39.07-.55-1.23-.39.07-.55-1.23-.39.07-.55-1.23-.39.07-.55-1.23-.39.07-.55-1.23-.39.07-.55-1.23-.39.07-.55-1.23-.39.07-.55-1.23-.39.07-.55-1.23-.39.07-.55-1.23-.39.07-.55-1.23-.39.07-.55-1.23-.39.07-.55-1.23-.39.07-.55-1.23-.39.07-.55-1.23-.39.07-.55-1.23-.39.07-.55-1.23-.39.07-.55-1.23-.39.07-.55-1.23-.39.07-.55-1.23-.39.07-.55-1.23-.39.07-.55-1.23-.39.07-.55-1.23-242.58 43.46L0 744.18l1.4-.25-.46 1.41 1.4-.25-.46 1.41 1.4-.25-.46 1.41 1.4-.25-.46 1.41 1.4-.25-.46 1.41 1.4-.25-.46 1.41 1.4-.25-.46 1.41 1.4-.25-.46 1.41 1.4-.25-.46 1.41 1.4-.25-.46 1.41 1.4-.25-.46 1.41 1.4-.25-.46 1.41 1.4-.25-.46 1.41 1.4-.25-.46 1.41 1.4-.25-.46 1.41 1.4-.25-.46 1.41 1.4-.25-.46 1.41 1.4-.25-.46 1.41 1.4-.25-.46 1.41 1.4-.25-.46 1.41 1.4-.25-.46 1.41 1.4-.25-.46 1.41 1.4-.25-.46 1.41 1.4-.25-.46 1.41 1.4-.25-.46 1.41 1.4-.25-.46 1.41 1.4-.25-.46 1.41 1.4-.25-.46 1.41 1.4-.25-.46 1.41 1.4-.25-.46 1.41 1.4-.25-.46 1.41 1.4-.25-.46 1.41 1.4-.25-.46 1.41 1.4-.25-.46 1.41 1.4-.25-.46 1.41 1.4-.25-.46 1.41 1.4-.25-.46 1.41 1.4-.25-.46 1.41 1.4-.25-.46 1.41 1.4-.25-.46 1.41 1.4-.25-.46 1.41 1.4-.25-.46 1.41 1.4-.25-.46 1.41 1.4-.25-.46 1.41 1.4-.25-.46 1.41 1.4-.25-.46 1.41 1.4-.25-.46 1.41 1.4-.25-.46 1.41 1.4-.25-.46 1.41 1.4-.25-.46 1.41 1.4-.25-.46 1.41 1.4-.25-.46 1.41 1.4-.25-.46 1.41 1.4-.25-.46 1.41 1.4-.25-.46 1.41 1.4-.25-.46 1.41 1.4-.25-.46 1.41 1.4-.25-.46 1.41 1.4-.25-.46 1.41 1.4-.25-.46 1.41 1.4-.25-.46 1.41 1.4-.25-.46 1.41 1.4-.25-.46 1.41 1.4-.25-.46 1.41 1.4-.25-.46 1.41 1.4-.25-.46 1.41 1.4-.25-.46 1.41 1.4-.25-.46 1.41 1.4-.25-.46 1.41 1.4-.25-.46 1.41 1.4-.25-.46 1.41 1.4-.25-.46 1.41 1.4-.25-.46 1.41 1.4-.25-.46 1.41 1.4-.25-.46 1.41 1.4-.25-.46 1.41 1.4-.25-.46 1.41 1.4-.25-.46 1.41 1.4-.25-.46 1.41 1.4-.25-.46 1.41 1.4-.25-.46 1.41 1.4-.25-.46 1.41 1.4-.25-.46 1.41 1.4-.25-.46 1.41 1.4-.25-.46 1.41 1.4-.25-.46 1.41 1.4-.25-.46 1.41 1.4-.25-.46 1.41 1.4-.25-.46 1.41 1.4-.25-.46 1.41 1.4-.25-.46 1.41 1.4-.25-.46 1.41 1.4-.25-.46 1.41 1.4-.25-.46 1.41 1.4-.25-.46 1.41 1.4-.25-.46 1.41 1.4-.25-.46 1.41 1.4-.25-.46 1.41 1.4-.25-.46 1.41 1.4-.25-.46 1.41 1.4-.25-.46 1.41 261.11-46.78 28.39-98.83 136.46-24.45.34.87.46-.08.48 1.24.46-.08.48 1.24.46-.08.48 1.24.46-.08.48 1.24.46-.08.48 1.24.46-.08.48 1.24.46-.08.48 1.24.46-.08.48 1.24.46-.08.48 1.24.46-.08.48 1.24.46-.08.48 1.24.46-.08.48 1.24.46-.08.48 1.24.46-.08.48 1.24.46-.08.48 1.24.46-.08.48 1.24.46-.08.48 1.24.46-.08.48 1.24.46-.08.48 1.24.46-.08.48 1.24.46-.08.48 1.24.46-.08.48 1.24.46-.08.48 1.24.46-.08.48 1.24.46-.08.48 1.24.46-.08.48 1.24.46-.08.48 1.24.46-.08.48 1.24.46-.08.48 1.24.46-.08.48 1.24.46-.08.48 1.24.46-.08.48 1.24.46-.08.48 1.24.46-.08.48 1.24.46-.08.48 1.24.46-.08.48 1.24.46-.08.48 1.24.46-.08.48 1.24.46-.08.48 1.24.46-.08.48 1.24.46-.08.48 1.24.46-.08.48 1.24.46-.08.48 1.24.46-.08.48 1.24.46-.08.48 1.24.46-.08.48 1.24.46-.08.48 1.24.46-.08.48 1.24.46-.08.48 1.24.46-.08.48 1.24.46-.08.48 1.24.46-.08.48 1.24.46-.08.48 1.24.46-.08.48 1.24.46-.08.48 1.24.46-.08.48 1.24.46-.08.48 1.24.46-.08.48 1.24.46-.08.48 1.24.46-.08.48 1.24.46-.08.48 1.24.46-.08.48 1.24.46-.08.48 1.24.46-.08.48 1.24.46-.08.48 1.24.46-.08.48 1.24.46-.08.48 1.24.46-.08.48 1.24.46-.08.48 1.24.46-.08.48 1.24 255.23-45.73zm3.92 533.97-211.93 37.97-28.39 98.83-192.16 34.43L349 187.16l201.29-36.06L798.4 704.12l-192.16 34.43-33.98-87.66Z" class="cls-1"/></svg>