<?xml version="1.0" standalone="no"?>
<!DOCTYPE svg PUBLIC "-//W3C//DTD SVG 20010904//EN"
 "http://www.w3.org/TR/2001/REC-SVG-20010904/DTD/svg10.dtd">
<svg version="1.0" xmlns="http://www.w3.org/2000/svg"
 width="861.000000pt" height="861.000000pt" viewBox="0 0 861.000000 861.000000"
 preserveAspectRatio="xMidYMid meet">
<metadata>
Created by potrace 1.14, written by Peter Selinger 2001-2017
</metadata>
<g transform="translate(0.000000,861.000000) scale(0.100000,-0.100000)"
fill="#000000" stroke="none">
<path d="M4779 8606 c-2 -2 -22 -7 -44 -10 -22 -3 -62 -11 -90 -16 -27 -5 -63
-12 -80 -15 -53 -9 -369 -65 -390 -69 -11 -2 -40 -7 -65 -11 -25 -4 -54 -9
-65 -12 -27 -5 -122 -22 -165 -29 -19 -3 -42 -7 -50 -9 -8 -2 -31 -7 -50 -10
-19 -3 -98 -17 -175 -31 -77 -15 -149 -28 -160 -29 -34 -6 -249 -44 -270 -49
-11 -2 -40 -7 -65 -11 -25 -4 -54 -9 -65 -11 -27 -6 -47 -9 -210 -38 -77 -14
-153 -28 -170 -31 -16 -3 -82 -15 -145 -26 -63 -11 -118 -24 -121 -27 -4 -4
-41 -113 -83 -242 -153 -466 -478 -1455 -483 -1470 -3 -8 -7 -19 -9 -25 -1 -5
-46 -140 -98 -300 -53 -159 -184 -558 -292 -885 -108 -327 -222 -674 -254
-770 -32 -96 -158 -479 -280 -850 -122 -371 -259 -785 -303 -920 -45 -135 -82
-247 -82 -250 0 -3 -81 -248 -179 -545 -98 -297 -193 -585 -211 -640 l-33
-100 37 -44 c20 -25 43 -55 53 -66 22 -27 123 -152 156 -194 15 -18 32 -38 37
-45 6 -6 39 -47 75 -91 35 -44 67 -82 70 -85 3 -3 18 -23 35 -45 16 -21 36
-47 45 -55 37 -40 70 -80 64 -80 -4 0 5 -11 20 -25 14 -13 26 -27 26 -30 0 -3
15 -22 32 -42 18 -19 32 -39 30 -44 -1 -5 5 -9 15 -9 9 0 14 -3 11 -6 -6 -5
14 -31 70 -91 12 -13 22 -26 22 -29 0 -3 25 -36 55 -72 31 -37 66 -79 78 -94
22 -28 29 -29 102 -14 11 2 40 7 65 11 25 4 54 9 65 11 27 5 123 22 160 28 17
3 55 10 85 16 30 6 67 13 82 15 15 2 128 22 250 44 123 22 237 43 253 46 17 3
40 7 51 9 12 2 37 7 55 10 44 7 81 14 149 27 30 6 69 13 85 15 17 3 53 9 81
15 28 5 64 12 80 14 16 3 65 12 109 20 44 8 157 28 250 45 94 16 179 32 190
34 32 6 109 19 125 21 8 2 83 15 165 30 83 15 166 29 185 32 19 3 36 6 37 7 2
1 55 184 119 407 63 222 128 444 143 494 l27 90 39 7 c64 11 377 67 415 73 19
3 118 21 220 40 102 19 201 36 220 40 19 3 96 16 170 30 74 13 149 26 165 29
17 3 52 10 80 15 57 11 40 26 210 -185 53 -66 108 -135 124 -154 43 -53 138
-170 170 -210 139 -172 213 -260 219 -260 4 0 57 9 117 20 61 11 121 21 135
24 14 2 77 13 140 25 63 11 129 23 145 26 27 4 265 48 325 59 14 3 77 14 140
25 125 22 133 23 295 52 61 11 124 22 140 25 17 2 50 9 75 14 25 5 61 11 80
14 19 4 45 8 56 10 12 2 37 7 55 10 19 3 48 8 64 11 17 3 77 14 135 25 58 11
117 21 133 24 15 3 55 10 90 16 34 7 71 13 82 15 11 1 34 5 50 8 28 6 47 9
130 23 54 8 140 26 147 30 6 4 -6 36 -70 174 -16 36 -63 142 -105 235 -41 94
-89 202 -107 240 -18 39 -58 129 -90 200 -32 72 -72 162 -90 200 -17 39 -38
84 -45 100 -7 17 -26 57 -40 90 -15 33 -44 98 -65 145 -21 47 -54 120 -74 163
-20 43 -36 80 -36 82 0 2 -15 36 -34 77 -18 40 -82 181 -141 313 -59 132 -115
258 -125 280 -10 22 -88 196 -174 388 -86 191 -226 503 -312 695 -86 191 -164
365 -174 387 -10 22 -55 123 -100 225 -45 102 -96 214 -112 250 -50 108 -73
158 -143 315 -37 83 -75 168 -85 190 -10 22 -65 146 -123 276 -58 129 -119
264 -135 300 -16 35 -46 102 -67 149 -21 47 -47 105 -58 130 -11 25 -64 144
-118 265 -89 198 -106 230 -178 320 -117 146 -123 154 -161 200 -19 23 -49 60
-66 81 -17 22 -95 118 -173 214 -78 96 -217 268 -309 382 -118 146 -173 207
-188 207 -11 1 -23 -1 -25 -3z m889 -1677 c41 -90 130 -290 199 -444 69 -154
166 -370 216 -480 49 -110 109 -243 132 -295 23 -52 54 -120 68 -150 13 -30
102 -228 197 -440 209 -467 211 -472 265 -590 24 -52 80 -178 125 -280 45
-102 100 -222 121 -268 22 -46 39 -85 39 -87 0 -3 14 -35 31 -72 17 -38 60
-133 96 -213 36 -80 76 -170 90 -200 14 -30 63 -138 108 -240 45 -102 133
-297 195 -435 62 -137 158 -353 215 -480 56 -126 114 -256 129 -287 14 -32 38
-84 52 -115 15 -32 34 -76 44 -98 40 -92 62 -141 72 -158 5 -11 7 -21 4 -25
-3 -3 -50 -13 -103 -23 -54 -9 -114 -20 -133 -23 -97 -18 -259 -46 -294 -52
-21 -3 -48 -8 -60 -10 -11 -3 -46 -9 -76 -14 -30 -6 -66 -12 -80 -15 -14 -3
-79 -14 -145 -26 -66 -11 -138 -24 -160 -29 -22 -5 -60 -12 -85 -15 -25 -4
-90 -15 -145 -25 -55 -11 -117 -22 -139 -26 -40 -6 -49 -8 -131 -23 -27 -6
-63 -12 -80 -14 -16 -3 -81 -14 -143 -26 -62 -13 -120 -21 -128 -19 -11 2 -38
60 -80 168 -86 221 -163 419 -219 565 -26 66 -50 124 -55 129 -5 5 -29 4 -57
-2 -26 -6 -64 -14 -83 -17 -36 -5 -119 -20 -425 -75 -93 -16 -183 -33 -200
-36 -163 -29 -254 -45 -275 -49 -14 -3 -90 -16 -170 -30 -80 -14 -156 -28
-170 -31 -14 -2 -63 -11 -110 -20 -47 -8 -98 -18 -115 -20 -16 -3 -61 -11
-100 -19 -38 -7 -88 -16 -110 -19 -47 -7 -85 -14 -165 -30 -49 -9 -83 -14
-100 -15 -8 -1 -21 -5 -28 -9 -7 -5 -75 -228 -152 -497 -77 -269 -141 -489
-143 -491 -1 -1 -23 -5 -49 -8 -26 -4 -53 -9 -60 -11 -12 -4 -222 -42 -278
-50 -14 -2 -86 -15 -160 -29 -74 -14 -151 -28 -170 -31 -77 -13 -319 -57 -390
-70 -41 -7 -91 -16 -110 -19 -19 -3 -93 -16 -165 -30 -71 -13 -146 -27 -165
-30 -19 -3 -47 -8 -62 -11 -16 -3 -40 -7 -55 -10 -16 -3 -44 -8 -63 -11 -19
-3 -69 -12 -110 -19 -41 -7 -76 -12 -78 -11 -1 2 35 117 82 257 72 219 262
796 568 1724 43 132 132 402 197 600 66 198 217 657 336 1020 120 363 275 833
345 1045 70 212 218 662 329 1000 201 613 231 700 235 700 1 0 27 4 57 10 30
5 70 12 89 15 19 3 69 12 110 20 41 8 89 16 105 19 46 7 147 25 175 31 14 3
88 16 165 30 77 14 150 27 161 29 12 2 39 7 60 10 22 4 62 11 89 16 28 5 64
12 80 15 17 3 41 7 55 10 13 2 40 7 60 10 20 3 47 8 60 10 30 6 307 56 335 60
11 2 61 11 110 20 131 23 138 24 165 30 13 2 42 7 65 11 22 3 42 8 44 10 14
13 32 -18 99 -167z"/>
<path d="M4640 5168 c0 -4 -23 -89 -51 -190 -28 -101 -52 -192 -54 -202 -3
-11 -16 -58 -29 -105 -23 -80 -46 -162 -52 -186 -8 -34 -98 -362 -115 -419
-12 -38 -23 -78 -25 -90 -2 -12 -11 -43 -19 -71 -8 -27 -37 -131 -64 -230
-122 -443 -171 -628 -169 -630 2 -1 125 20 273 46 149 27 284 51 300 54 17 3
41 7 55 10 14 3 41 7 60 10 19 3 80 14 135 25 55 10 120 21 145 25 25 3 61 10
80 15 19 5 51 11 70 13 100 14 180 31 180 38 0 5 -88 242 -196 527 -107 284
-222 589 -256 677 -33 88 -73 194 -89 235 -64 168 -150 396 -152 405 -4 14
-26 51 -27 43z"/>
</g>
</svg>
