<svg xmlns="http://www.w3.org/2000/svg" width="861.000000pt" height="861.000000pt" version="1.0" viewBox="0 0 861.000000 861.000000"><path d="M477.9.4c-.2.2-2.2.7-4.4 1s-6.2 1.1-9 1.6c-2.7.5-6.3 1.2-8 1.5-5.3.9-36.9 6.5-39 6.9-1.1.2-4 .7-6.5 1.1s-5.4.9-6.5 1.2c-2.7.5-12.2 2.2-16.5 2.9-1.9.3-4.2.7-5 .9s-3.1.7-5 1-9.8 1.7-17.5 3.1c-7.7 1.5-14.9 2.8-16 2.9-3.4.6-24.9 4.4-27 4.9-1.1.2-4 .7-6.5 1.1s-5.4.9-6.5 1.1c-2.7.6-4.7.9-21 3.8-7.7 1.4-15.3 2.8-17 3.1-1.6.3-8.2 1.5-14.5 2.6s-11.8 2.4-12.1 2.7c-.4.4-4.1 11.3-8.3 24.2-15.3 46.6-47.8 145.5-48.3 147-.3.8-.7 1.9-.9 2.5-.1.5-4.6 14-9.8 30-5.3 15.9-18.4 55.8-29.2 88.5s-22.2 67.4-25.4 77-15.8 47.9-28 85-25.9 78.5-30.3 92c-4.5 13.5-8.2 24.7-8.2 25s-8.1 24.8-17.9 54.5-19.3 58.5-21.1 64l-3.3 10 3.7 4.4c2 2.5 4.3 5.5 5.3 6.6 2.2 2.7 12.3 15.2 15.6 19.4 1.5 1.8 3.2 3.8 3.7 4.5.6.6 3.9 4.7 7.5 9.1 3.5 4.4 6.7 8.2 7 8.5s1.8 2.3 3.5 4.5c1.6 2.1 3.6 4.7 4.5 5.5 3.7 4 7 8 6.4 8-.4 0 .5 1.1 2 2.5 1.4 1.3 2.6 2.7 2.6 3s1.5 2.2 3.2 4.2c1.8 1.9 3.2 3.9 3 4.4-.1.5.5.9 1.5.9.9 0 1.4.3 1.1.6-.6.5 1.4 3.1 7 9.1 1.2 1.3 2.2 2.6 2.2 2.9s2.5 3.6 5.5 7.2c3.1 3.7 6.6 7.9 7.8 9.4 2.2 2.8 2.9 2.9 10.2 1.4 1.1-.2 4-.7 6.5-1.1s5.4-.9 6.5-1.1c2.7-.5 12.3-2.2 16-2.8 1.7-.3 5.5-1 8.5-1.6s6.7-1.3 8.2-1.5 12.8-2.2 25-4.4c12.3-2.2 23.7-4.3 25.3-4.6 1.7-.3 4-.7 5.1-.9 1.2-.2 3.7-.7 5.5-1 4.4-.7 8.1-1.4 14.9-2.7 3-.6 6.9-1.3 8.5-1.5 1.7-.3 5.3-.9 8.1-1.5 2.8-.5 6.4-1.2 8-1.4 1.6-.3 6.5-1.2 10.9-2s15.7-2.8 25-4.5c9.4-1.6 17.9-3.2 19-3.4 3.2-.6 10.9-1.9 12.5-2.1.8-.2 8.3-1.5 16.5-3 8.3-1.5 16.6-2.9 18.5-3.2s3.6-.6 3.7-.7c.2-.1 5.5-18.4 11.9-40.7 6.3-22.2 12.8-44.4 14.3-49.4l2.7-9 3.9-.7c6.4-1.1 37.7-6.7 41.5-7.3 1.9-.3 11.8-2.1 22-4s20.1-3.6 22-4c1.9-.3 9.6-1.6 17-3 7.4-1.3 14.9-2.6 16.5-2.9 1.7-.3 5.2-1 8-1.5 5.7-1.1 4-2.6 21 18.5 5.3 6.6 10.8 13.5 12.4 15.4 4.3 5.3 13.8 17 17 21 13.9 17.2 21.3 26 21.9 26 .4 0 5.7-.9 11.7-2 6.1-1.1 12.1-2.1 13.5-2.4 1.4-.2 7.7-1.3 14-2.5 6.3-1.1 12.9-2.3 14.5-2.6 2.7-.4 26.5-4.8 32.5-5.9 1.4-.3 7.7-1.4 14-2.5 12.5-2.2 13.3-2.3 29.5-5.2 6.1-1.1 12.4-2.2 14-2.5 1.7-.2 5-.9 7.5-1.4s6.1-1.1 8-1.4c1.9-.4 4.5-.8 5.6-1 1.2-.2 3.7-.7 5.5-1 1.9-.3 4.8-.8 6.4-1.1 1.7-.3 7.7-1.4 13.5-2.5s11.7-2.1 13.3-2.4c1.5-.3 5.5-1 9-1.6 3.4-.7 7.1-1.3 8.2-1.5 1.1-.1 3.4-.5 5-.8 2.8-.6 4.7-.9 13-2.3 5.4-.8 14-2.6 14.7-3 .6-.4-.6-3.6-7-17.4-1.6-3.6-6.3-14.2-10.5-23.5-4.1-9.4-8.9-20.2-10.7-24-1.8-3.9-5.8-12.9-9-20-3.2-7.2-7.2-16.2-9-20-1.7-3.9-3.8-8.4-4.5-10-.7-1.7-2.6-5.7-4-9-1.5-3.3-4.4-9.8-6.5-14.5s-5.4-12-7.4-16.3-3.6-8-3.6-8.2-1.5-3.6-3.4-7.7c-1.8-4-8.2-18.1-14.1-31.3s-11.5-25.8-12.5-28-8.8-19.6-17.4-38.8c-8.6-19.1-22.6-50.3-31.2-69.5-8.6-19.1-16.4-36.5-17.4-38.7s-5.5-12.3-10-22.5-9.6-21.4-11.2-25c-5-10.8-7.3-15.8-14.3-31.5-3.7-8.3-7.5-16.8-8.5-19s-6.5-14.6-12.3-27.6c-5.8-12.9-11.9-26.4-13.5-30-1.6-3.5-4.6-10.2-6.7-14.9s-4.7-10.5-5.8-13-6.4-14.4-11.8-26.5c-8.9-19.8-10.6-23-17.8-32-11.7-14.6-12.3-15.4-16.1-20-1.9-2.3-4.9-6-6.6-8.1-1.7-2.2-9.5-11.8-17.3-21.4s-21.7-26.8-30.9-38.2C487.4 6.2 481.9.1 480.4.1c-1.1-.1-2.3.1-2.5.3m88.9 167.7c4.1 9 13 29 19.9 44.4s16.6 37 21.6 48c4.9 11 10.9 24.3 13.2 29.5s5.4 12 6.8 15c1.3 3 10.2 22.8 19.7 44 20.9 46.7 21.1 47.2 26.5 59 2.4 5.2 8 17.8 12.5 28s10 22.2 12.1 26.8c2.2 4.6 3.9 8.5 3.9 8.7 0 .3 1.4 3.5 3.1 7.2 1.7 3.8 6 13.3 9.6 21.3s7.6 17 9 20 6.3 13.8 10.8 24 13.3 29.7 19.5 43.5c6.2 13.7 15.8 35.3 21.5 48 5.6 12.6 11.4 25.6 12.9 28.7 1.4 3.2 3.8 8.4 5.2 11.5 1.5 3.2 3.4 7.6 4.4 9.8 4 9.2 6.2 14.1 7.2 15.8.5 1.1.7 2.1.4 2.5-.3.3-5 1.3-10.3 2.3-5.4.9-11.4 2-13.3 2.3-9.7 1.8-25.9 4.6-29.4 5.2-2.1.3-4.8.8-6 1-1.1.3-4.6.9-7.6 1.4-3 .6-6.6 1.2-8 1.5s-7.9 1.4-14.5 2.6c-6.6 1.1-13.8 2.4-16 2.9s-6 1.2-8.5 1.5c-2.5.4-9 1.5-14.5 2.5-5.5 1.1-11.7 2.2-13.9 2.6-4 .6-4.9.8-13.1 2.3-2.7.6-6.3 1.2-8 1.4-1.6.3-8.1 1.4-14.3 2.6-6.2 1.3-12 2.1-12.8 1.9-1.1-.2-3.8-6-8-16.8-8.6-22.1-16.3-41.9-21.9-56.5-2.6-6.6-5-12.4-5.5-12.9s-2.9-.4-5.7.2c-2.6.6-6.4 1.4-8.3 1.7-3.6.5-11.9 2-42.5 7.5-9.3 1.6-18.3 3.3-20 3.6-16.3 2.9-25.4 4.5-27.5 4.9-1.4.3-9 1.6-17 3s-15.6 2.8-17 3.1c-1.4.2-6.3 1.1-11 2-4.7.8-9.8 1.8-11.5 2-1.6.3-6.1 1.1-10 1.9-3.8.7-8.8 1.6-11 1.9-4.7.7-8.5 1.4-16.5 3-4.9.9-8.3 1.4-10 1.5-.8.1-2.1.5-2.8.9-.7.5-7.5 22.8-15.2 49.7s-14.1 48.9-14.3 49.1c-.1.1-2.3.5-4.9.8-2.6.4-5.3.9-6 1.1-1.2.4-22.2 4.2-27.8 5-1.4.2-8.6 1.5-16 2.9s-15.1 2.8-17 3.1c-7.7 1.3-31.9 5.7-39 7-4.1.7-9.1 1.6-11 1.9s-9.3 1.6-16.5 3c-7.1 1.3-14.6 2.7-16.5 3s-4.7.8-6.2 1.1c-1.6.3-4 .7-5.5 1-1.6.3-4.4.8-6.3 1.1s-6.9 1.2-11 1.9-7.6 1.2-7.8 1.1c-.1-.2 3.5-11.7 8.2-25.7 7.2-21.9 26.2-79.6 56.8-172.4 4.3-13.2 13.2-40.2 19.7-60 6.6-19.8 21.7-65.7 33.6-102 12-36.3 27.5-83.3 34.5-104.5s21.8-66.2 32.9-100c20.1-61.3 23.1-70 23.5-70 .1 0 2.7-.4 5.7-1 3-.5 7-1.2 8.9-1.5s6.9-1.2 11-2 8.9-1.6 10.5-1.9c4.6-.7 14.7-2.5 17.5-3.1 1.4-.3 8.8-1.6 16.5-3s15-2.7 16.1-2.9c1.2-.2 3.9-.7 6-1 2.2-.4 6.2-1.1 8.9-1.6 2.8-.5 6.4-1.2 8-1.5 1.7-.3 4.1-.7 5.5-1 1.3-.2 4-.7 6-1s4.7-.8 6-1c3-.6 30.7-5.6 33.5-6 1.1-.2 6.1-1.1 11-2 13.1-2.3 13.8-2.4 16.5-3 1.3-.2 4.2-.7 6.5-1.1 2.2-.3 4.2-.8 4.4-1 1.4-1.3 3.2 1.8 9.9 16.7"/><path d="M464 344.2c0 .4-2.3 8.9-5.1 19s-5.2 19.2-5.4 20.2c-.3 1.1-1.6 5.8-2.9 10.5-2.3 8-4.6 16.2-5.2 18.6-.8 3.4-9.8 36.2-11.5 41.9-1.2 3.8-2.3 7.8-2.5 9s-1.1 4.3-1.9 7.1c-.8 2.7-3.7 13.1-6.4 23-12.2 44.3-17.1 62.8-16.9 63 .2.1 12.5-2 27.3-4.6 14.9-2.7 28.4-5.1 30-5.4 1.7-.3 4.1-.7 5.5-1s4.1-.7 6-1 8-1.4 13.5-2.5c5.5-1 12-2.1 14.5-2.5 2.5-.3 6.1-1 8-1.5s5.1-1.1 7-1.3c10-1.4 18-3.1 18-3.8 0-.5-8.8-24.2-19.6-52.7-10.7-28.4-22.2-58.9-25.6-67.7-3.3-8.8-7.3-19.4-8.9-23.5-6.4-16.8-15-39.6-15.2-40.5-.4-1.4-2.6-5.1-2.7-4.3"/></svg>